REM MD5 7c3ae30dea8fc4a6ad681da8661225ec
FILE "Neko na Ka-N-Ke-I (Japan).bin" BINARY
  TRACK 01 MODE2/2352
    INDEX 01 00:00:00
  TRACK 02 AUDIO
    INDEX 00 37:30:07
    INDEX 01 37:32:07
  TRACK 03 AUDIO
    INDEX 00 39:13:52
    INDEX 01 39:15:52
REM LEADOUT 42:39:41
